<?xml version="1.0" encoding="utf-8"?>
<!-- Generator: Adobe Illustrator 21.1.0, SVG Export Plug-In . SVG Version: 6.00 Build 0)  -->
<svg version="1.1" id="Layer_1" xmlns="http://www.w3.org/2000/svg" xmlns:xlink="http://www.w3.org/1999/xlink" x="0px" y="0px"
	 viewBox="0 0 154 154" style="enable-background:new 0 0 154 154;" xml:space="preserve">
<style type="text/css">
	.st0{fill:url(#SVGID_1_);}
	.st1{fill:#201E1E;}
</style>
<g>
	
		<linearGradient id="SVGID_1_" gradientUnits="userSpaceOnUse" x1="16860.3984" y1="-23644.2363" x2="16860.3984" y2="-20981.4629" gradientTransform="matrix(5.745891e-02 0 0 -5.745891e-02 -891.6011 -1205.0293)">
		<stop  offset="0" style="stop-color:#FCDC6B"/>
		<stop  offset="1" style="stop-color:#DF4158"/>
	</linearGradient>
	<circle class="st0" cx="77.2" cy="77" r="76.5"/>
	<path class="st1" d="M86.6,126.6c15.3,0,16.9,3.4,16.9,6c0,2.7-7.6,3.8-16.9,3.8c-9.4,0-16.9-1.1-16.9-3.8
		C69.7,130,71.2,126.6,86.6,126.6z"/>
	<path class="st1" d="M30.8,108.9c0,4.2,3.4,4.8,7.5,6c0.5,0.1,0.9,0.2,1.4,0.4c2,4.4,6.7,7.6,12.2,7.6c3.5,0,6.7-1.3,9.1-3.4
		c1.6,0.2,3.2,0.3,4.8,0.5c2.4,0.2,3.7,0.3,5.2-1c2.1-2,2.2-6.6-2.7-7.5l-11.8-1.4c-4.8-0.7-13.8-2.7-18.7-4.4
		c-0.9-0.3-1.7-0.6-2.6-0.7h-0.9c-0.7,0.1-1.5,0.4-2.3,1.1C31.6,106.7,30.8,108,30.8,108.9z M44.6,116.6c0.4,0.1,0.9,0.2,1.3,0.3
		C45.5,116.9,45,116.7,44.6,116.6z"/>
	<path class="st1" d="M141,109.7c0,3.9-3.2,4.6-7.1,5.7c-0.4,0.1-0.8,0.2-1.3,0.3c-1.9,4.2-6.3,7.2-11.5,7.2c-3.3,0-6.3-1.3-8.6-3.2
		c-1.5,0.2-3.1,0.3-4.6,0.5c-2.2,0.2-3.5,0.3-4.8-1c-2-1.9-2.2-6.2,2.5-7l11.1-1.3c4.6-0.7,13-2.6,17.6-4.2c0.8-0.3,1.6-0.6,2.5-0.7
		h0.9c0.7,0.1,1.4,0.4,2.1,1C140.2,107.7,141,108.9,141,109.7z M128,117c-0.4,0.1-0.8,0.2-1.2,0.3C127.2,117.2,127.6,117.1,128,117z
		"/>
</g>
</svg>
