<?xml version="1.0" encoding="utf-8"?>
<!-- Generator: Adobe Illustrator 21.1.0, SVG Export Plug-In . SVG Version: 6.00 Build 0)  -->
<svg version="1.1" id="Layer_1" xmlns="http://www.w3.org/2000/svg" xmlns:xlink="http://www.w3.org/1999/xlink" x="0px" y="0px"
	 viewBox="0 0 154 154" style="enable-background:new 0 0 154 154;" xml:space="preserve">
<style type="text/css">
	.st0{fill:#FCDC6B;}
	.st1{fill:#201E1E;}
	.st2{clip-path:url(#SVGID_2_);}
	.st3{fill:#F50953;}
	.st4{fill:none;}
</style>
<g>
	<circle class="st0" cx="76.9" cy="77" r="76.5"/>
	<g>
		<g>
			<path class="st1" d="M27.5,32c0,4.2,4.8,4.7,8.3,6l0.8,0.3c-1.8,0.5-11.3,2.4-12.4,3.1c-1.3,0.7-1.9,1.9-2.1,3.3v1.1
				c0.2,1.9,1.7,3.6,4.5,3.6c1.3,0,2.9-0.6,4.2-0.9l12.2-2.8c1.9-0.5,10.6-2,11.9-3.1c2.3-1.9,2.2-4.8,0.5-6.6
				c-0.7-0.7-2.1-1.1-3.1-1.5c-3.8-1.3-18-6.7-20.7-6.7C29.4,27.9,27.5,29.9,27.5,32z"/>
			<path class="st1" d="M95.4,40.8c0,3.6,2.9,4.3,5.4,4.8c2.7,0.6,5.5,1.3,8.2,1.9l12.2,2.8c2.3,0.6,2.9,0.8,5.2,0.8
				c1.6,0,3.5-2,3.5-3.6c0-4.5-2.3-4.5-6-5.4c-2.9-0.7-5.7-1.3-8.6-1.9l7-2.6c0.1-0.1,0.4-0.3,0.6-0.4c3-2.7,1.4-7.5-3-7.5
				c-1,0-5.6,1.7-6.7,2.1c-3.8,1.5-9.9,3.3-13.3,4.6C97.7,37.1,95.4,37.7,95.4,40.8z"/>
		</g>
	</g>
	<path class="st1" d="M17.5,62.4c5.9-1.2,11.9-2.5,19.6-3.4c7.7-0.9,17.2-1.5,25.6-1.8c8.4-0.3,15.9-0.3,23.3,0.1
		c7.4,0.5,14.9,1.3,22.2,2.4c7.4,1.1,14.7,2.5,22,3.9c0,5.5,0,10.9-1.5,17.3c-1.5,6.5-4.4,13.9-9.1,20.4
		c-4.6,6.5-10.8,12.1-15.9,15.8c-5.2,3.7-9.2,5.4-14,6.7c-4.7,1.4-10,2.3-15.3,2.5c-5.2,0.1-10.4-0.9-15.6-2.3
		c-5.1-1.4-10-3.4-15.4-7c-5.4-3.6-11.2-8.8-15.7-14.9c-4.4-6.1-7.5-13.2-9-20C17.2,75.4,17.4,68.9,17.5,62.4z"/>
	<g>
		<defs>
			<path id="SVGID_1_" d="M17.5,62.4c5.9-1.2,11.9-2.5,19.6-3.4c7.7-0.9,17.2-1.5,25.6-1.8c8.4-0.3,15.9-0.3,23.3,0.1
				c7.4,0.5,14.9,1.3,22.2,2.4c7.4,1.1,14.7,2.5,22,3.9c0,5.5,0,10.9-1.5,17.3c-1.5,6.5-4.4,13.9-9.1,20.4
				c-4.6,6.5-10.8,12.1-15.9,15.8c-5.2,3.7-9.2,5.4-14,6.7c-4.7,1.4-10,2.3-15.3,2.5c-5.2,0.1-10.4-0.9-15.6-2.3
				c-5.1-1.4-10-3.4-15.4-7c-5.4-3.6-11.2-8.8-15.7-14.9c-4.4-6.1-7.5-13.2-9-20C17.2,75.4,17.4,68.9,17.5,62.4z"/>
		</defs>
		<clipPath id="SVGID_2_">
			<use xlink:href="#SVGID_1_"  style="overflow:visible;"/>
		</clipPath>
		<g class="st2">
			<g>
				<ellipse class="st3" cx="74.1" cy="126" rx="47.2" ry="33.9"/>
			</g>
		</g>
	</g>
	<path class="st4" d="M17.5,62.4c5.9-1.2,11.9-2.5,19.6-3.4c7.7-0.9,17.2-1.5,25.6-1.8c8.4-0.3,15.9-0.3,23.3,0.1
		c7.4,0.5,14.9,1.3,22.2,2.4c7.4,1.1,14.7,2.5,22,3.9c0,5.5,0,10.9-1.5,17.3c-1.5,6.5-4.4,13.9-9.1,20.4
		c-4.6,6.5-10.8,12.1-15.9,15.8c-5.2,3.7-9.2,5.4-14,6.7c-4.7,1.4-10,2.3-15.3,2.5c-5.2,0.1-10.4-0.9-15.6-2.3
		c-5.1-1.4-10-3.4-15.4-7c-5.4-3.6-11.2-8.8-15.7-14.9c-4.4-6.1-7.5-13.2-9-20C17.2,75.4,17.4,68.9,17.5,62.4z"/>
</g>
</svg>
