<?xml version="1.0" encoding="utf-8"?>
<!-- Generator: Adobe Illustrator 21.1.0, SVG Export Plug-In . SVG Version: 6.00 Build 0)  -->
<svg version="1.1" id="Layer_1" xmlns="http://www.w3.org/2000/svg" xmlns:xlink="http://www.w3.org/1999/xlink" x="0px" y="0px"
	 viewBox="0 0 154 154" style="enable-background:new 0 0 154 154;" xml:space="preserve">
<style type="text/css">
	.st0{fill:#6A99D0;}
	.st1{fill:#FEFEFE;}
</style>
<circle class="st0" cx="77" cy="77" r="76.5"/>
<path class="st1" d="M40.3,71.2h13.6c1.1,0,1.9,0.9,1.9,1.9v39.1c0,1.1-0.9,1.9-1.9,1.9H40.3c-1.1,0-2-0.9-2-1.9V73.1
	C38.3,72,39.2,71.2,40.3,71.2z M63.8,108.6h41.5c3,0,5.5-2.5,5.5-5.5l0,0c0-2.3-1.5-4.3-3.5-5.1l0,0h1c2.9,0,5.3-3.2,5.3-6.1l0,0
	c0-3-2.4-5.4-5.3-5.4h-1v-0.5h3c2.9,0,5.4-2.4,5.4-5.3l0,0c0-3-2.5-5.4-5.4-5.4h-3v-0.5h3c2.9,0,5.4-2.4,5.4-5.3l0,0
	c0-3-2.5-5.4-5.4-5.4H105c-0.2,0-0.4,0-0.6,0c-0.1,0-0.3,0-0.5,0H87c-0.2-0.1-0.2-0.2,0-0.6c0.3-0.6,0.9-1.7,1.9-3.4
	c1-1.7,2.2-3.9,2.8-6.8c0.6-2.9,0.6-6.3,0.1-9.1c-0.5-2.7-1.4-4.7-2.6-5.9c-1.3-1.3-2.7-1.8-4.2-1.9c-1.5-0.1-3,0.3-4.1,1.3
	c-1.1,1-1.7,2.6-1.9,4.6c-0.2,2.1-0.1,4.6-0.1,6.1c-0.1,1.5-0.4,2.2-1.4,2.9c-1,0.7-2.7,1.7-4.2,3c-1.5,1.4-3,3.1-4.4,5.1
	c-2.4,3.1-8.4,10.8-8.4,14.1v31.5C60.4,107.1,61.9,108.6,63.8,108.6z"/>
</svg>
