<?xml version="1.0" encoding="utf-8"?>
<!-- Generator: Adobe Illustrator 21.1.0, SVG Export Plug-In . SVG Version: 6.00 Build 0)  -->
<svg version="1.1" id="Layer_1" xmlns="http://www.w3.org/2000/svg" xmlns:xlink="http://www.w3.org/1999/xlink" x="0px" y="0px"
	 viewBox="0 0 154 154" style="enable-background:new 0 0 154 154;" xml:space="preserve">
<style type="text/css">
	.st0{fill:#FCDC6B;}
	.st1{fill:#201E1E;}
	.st2{fill:#6383C1;}
</style>
<g>
	<circle class="st0" cx="77.4" cy="76.8" r="76.5"/>
	<ellipse class="st1" cx="41.2" cy="87.2" rx="10.5" ry="12.4"/>
	<ellipse class="st1" cx="113.3" cy="87.2" rx="10.5" ry="12.4"/>
	<g>
		<g>
			<path class="st1" d="M105.6,64.6c0,2.8,1.6,4.7,4.3,4.7c1.6,0,6.6-2.3,11.7,1.2c1.6,1.1,2.4,3.4,5,3.4c2.3,0,4.2-1.7,4.4-3.9
				c0.2-2.4-1.7-4-3-5.3c-2.8-2.8-7.7-4.3-12.3-4.6h-2.4C109,60.2,105.6,61.8,105.6,64.6z"/>
			<path class="st1" d="M29,73.9c4.3,0,4.3-6.9,14.5-5c1.3,0.2,1.2,0.5,2.6,0.5c4.3,0,6.1-6.5,1-8.4c-1.3-0.5-2.9-0.8-4.6-0.9h-2.3
				c-4.6,0.2-9.6,1.8-12.2,4.5c-1.3,1.3-3.2,2.8-3.1,5C24.8,71.8,26.8,73.9,29,73.9z"/>
		</g>
	</g>
	<path class="st1" d="M56.6,126.3c0,2.9,1.4,5,4.3,5c1.2,0,2.8-1,3.6-1.6c7.3-4.4,14.4-5.1,22.3-2c3.3,1.3,6.2,5.3,9.8,2.1
		c1-1,1.2-1.7,1.2-3.3c0-2.3-1.5-3.1-2.8-4c-5.1-3.6-10.9-5.3-16.8-5.3c-6.3,0-12.6,1.8-18.1,5.1c-0.7,0.4-1.6,0.9-2.2,1.4
		C57.4,124.2,56.6,125.4,56.6,126.3z"/>
	<path class="st2" d="M123.1,114.6c2,7.7,12.4,18.4,12.4,24.5c0,6.1-3.1,12.3-12.4,12.3c-9.3,0-12.4-6.2-12.4-12.3
		C110.8,133,121.2,121.9,123.1,114.6z"/>
</g>
</svg>
