<?xml version="1.0" encoding="utf-8"?>
<!-- Generator: Adobe Illustrator 21.1.0, SVG Export Plug-In . SVG Version: 6.00 Build 0)  -->
<svg version="1.1" id="Layer_1" xmlns="http://www.w3.org/2000/svg" xmlns:xlink="http://www.w3.org/1999/xlink" x="0px" y="0px"
	 viewBox="0 0 154 154" style="enable-background:new 0 0 154 154;" xml:space="preserve">
<style type="text/css">
	.st0{fill:#FCDC6B;}
	.st1{fill:#201E1E;}
</style>
<g>
	<circle class="st0" cx="77.4" cy="77" r="76.5"/>
	<g>
		<g>
			<path class="st1" d="M30.4,24.6c0,3.5,4.4,5.5,7.2,3.1c0.8-0.7,1.5-2,3.2-3.3c0.7-0.5,1.1-0.9,1.9-1.3c3.2-1.6,5.7-0.2,7.9,2.2
				c2.9,3.3,7.8,1.4,7.8-2.7c0-3.5-12.7-16.4-25.7-2.3c-0.4,0.4-0.3,0.4-0.6,0.8C31.2,22,30.4,22.8,30.4,24.6z"/>
			<path class="st1" d="M97.6,22.7c0,3.6,3.5,5.3,6.2,4c1.1-0.6,2.8-2.8,4.5-3.6c2.5-1.2,4.6-0.5,6.6,1.2c0.6,0.5,1.1,0.9,1.7,1.4
				c0.9,0.9,2.7,4.2,6.2,2.7c0.8-0.3,1.3-0.7,1.8-1.3c0.6-0.8,0.9-1.5,1-2.2v-0.8c-0.2-1.7-1.6-2.9-2.2-3.7
				c-2.4-3.1-8.2-6.7-12.6-6.7c-3.1,0-6.4,1.4-8.3,2.7l-3,2.5c-0.3,0.3-0.2,0.3-0.5,0.7C98.2,20.6,97.6,21,97.6,22.7z"/>
		</g>
	</g>
	<path class="st1" d="M44.2,43.6c6.2,0,10.6,7.1,9.9,15.8s-6.3,15.8-12.5,15.8s-10.6-7.1-9.9-15.8C32.4,50.7,38,43.6,44.2,43.6z"/>
	<path class="st1" d="M111.2,43.6c-6.2,0-10.6,7.1-9.9,15.8s6.3,15.8,12.5,15.8c6.2,0,10.6-7.1,9.9-15.8
		C123,50.7,117.4,43.6,111.2,43.6z"/>
	<ellipse class="st1" cx="77.5" cy="111" rx="18.9" ry="31"/>
</g>
</svg>
